# xmcd
#
# Track frame offsets: 
#        150
#        29015
#        53615
#        75160
#        101807
#        121677
#        146720
#        163077
#        185112
#
# Disc length: 2696 seconds
#
# Revision: 4
# Processed by: cddbd v1.5.2PL0 Copyright (c) Steve Scherf et al.
# Submitted via: ExactAudioCopyFreeDBPlugin 1.0
#
DISCID=740a8609
DTITLE=Donny Hathaway - Donny Hathaway [Original Album Series 5-Pk]
DYEAR=1971
DGENRE=Soul
TTITLE0=Giving Up
TTITLE1=A Song For You
TTITLE2=Little Girl
TTITLE3=He Ain't Heavy, He's My Brother
TTITLE4=Magnificent Sanctuary Band
TTITLE5=She Is My Lady
TTITLE6=I Believe In Music
TTITLE7=Take A Love Song
TTITLE8=Put Your Hand In The Hand
EXTD=
EXTT0=
EXTT1=
EXTT2=
EXTT3=
EXTT4=
EXTT5=
EXTT6=
EXTT7=
EXTT8=
PLAYORDER=
